<svg width="24" height="24" viewBox="0 0 24 24" fill="none" xmlns="http://www.w3.org/2000/svg">
<path fill-rule="evenodd" clip-rule="evenodd" d="M9.94398 3.25H14.056C15.894 3.25 17.35 3.25 18.489 3.403C19.661 3.561 20.61 3.893 21.359 4.641C22.107 5.39 22.439 6.339 22.597 7.511C22.687 8.184 22.724 8.967 22.739 9.874C22.7521 9.95001 22.7534 10.0276 22.743 10.104C22.75 10.67 22.75 11.282 22.75 11.944V12.056C22.75 13.894 22.75 15.35 22.597 16.489C22.439 17.661 22.107 18.61 21.359 19.359C20.61 20.107 19.661 20.439 18.489 20.597C17.349 20.75 15.894 20.75 14.056 20.75H9.94398C8.10598 20.75 6.64999 20.75 5.51099 20.597C4.33899 20.439 3.38999 20.107 2.64099 19.359C1.89299 18.61 1.56099 17.661 1.40299 16.489C1.24999 15.349 1.24999 13.894 1.24999 12.056V11.944C1.24999 11.282 1.24999 10.67 1.25699 10.104C1.24626 10.0276 1.24728 9.95007 1.25999 9.874C1.27599 8.967 1.31299 8.184 1.40299 7.511C1.56099 6.339 1.89299 5.39 2.64099 4.641C3.38999 3.893 4.33899 3.561 5.51099 3.403C6.65099 3.25 8.10598 3.25 9.94398 3.25ZM2.75199 10.75C2.74999 11.138 2.74999 11.554 2.74999 12C2.74999 13.907 2.75199 15.262 2.88999 16.29C3.02499 17.295 3.27898 17.875 3.70198 18.298C4.12498 18.721 4.70499 18.975 5.71099 19.11C6.73899 19.248 8.09298 19.25 9.99998 19.25H14C15.907 19.25 17.262 19.248 18.29 19.11C19.295 18.975 19.875 18.721 20.298 18.298C20.721 17.875 20.975 17.295 21.11 16.289C21.248 15.261 21.25 13.907 21.25 12C21.25 11.554 21.25 11.138 21.248 10.75H2.75199ZM21.224 9.25H2.77599C2.79599 8.663 2.82999 8.156 2.88999 7.71C3.02499 6.705 3.27898 6.125 3.70198 5.702C4.12498 5.279 4.70499 5.025 5.71099 4.89C6.73899 4.752 8.09298 4.75 9.99998 4.75H14C15.907 4.75 17.262 4.752 18.29 4.89C19.295 5.025 19.875 5.279 20.298 5.702C20.721 6.125 20.975 6.705 21.11 7.711C21.17 8.156 21.204 8.663 21.224 9.25ZM5.24999 16C5.24999 15.8011 5.329 15.6103 5.46966 15.4697C5.61031 15.329 5.80107 15.25 5.99999 15.25H9.99998C10.1989 15.25 10.3897 15.329 10.5303 15.4697C10.671 15.6103 10.75 15.8011 10.75 16C10.75 16.1989 10.671 16.3897 10.5303 16.5303C10.3897 16.671 10.1989 16.75 9.99998 16.75H5.99999C5.80107 16.75 5.61031 16.671 5.46966 16.5303C5.329 16.3897 5.24999 16.1989 5.24999 16ZM11.75 16C11.75 15.8011 11.829 15.6103 11.9697 15.4697C12.1103 15.329 12.3011 15.25 12.5 15.25H14C14.1989 15.25 14.3897 15.329 14.5303 15.4697C14.671 15.6103 14.75 15.8011 14.75 16C14.75 16.1989 14.671 16.3897 14.5303 16.5303C14.3897 16.671 14.1989 16.75 14 16.75H12.5C12.3011 16.75 12.1103 16.671 11.9697 16.5303C11.829 16.3897 11.75 16.1989 11.75 16Z" fill="#949393"/>
</svg>
