<svg width="20" height="20" viewBox="0 0 20 20" fill="none" xmlns="http://www.w3.org/2000/svg">
<path d="M4.21249 2.70474C4.15761 2.64287 4.09099 2.59251 4.01649 2.55658C3.942 2.52064 3.86111 2.49985 3.77853 2.49541C3.69594 2.49097 3.61329 2.50296 3.53537 2.53069C3.45746 2.55843 3.38582 2.60135 3.32461 2.65697C3.2634 2.7126 3.21384 2.77982 3.17881 2.85474C3.14377 2.92965 3.12395 3.01078 3.1205 3.09342C3.11704 3.17605 3.13003 3.25855 3.15869 3.33613C3.18736 3.41371 3.23114 3.48483 3.28749 3.54536L4.79062 5.19927C1.95312 6.94068 0.732805 9.62505 0.678899 9.74693C0.643362 9.82686 0.625 9.91336 0.625 10.0008C0.625 10.0883 0.643362 10.1748 0.678899 10.2547C0.706243 10.3165 1.36796 11.7836 2.83905 13.2547C4.79921 15.2141 7.27499 16.2501 9.99999 16.2501C11.4005 16.258 12.7868 15.9697 14.068 15.404L15.7867 17.2954C15.8416 17.3572 15.9082 17.4076 15.9827 17.4435C16.0572 17.4795 16.1381 17.5003 16.2207 17.5047C16.3033 17.5091 16.3859 17.4971 16.4638 17.4694C16.5417 17.4417 16.6134 17.3988 16.6746 17.3431C16.7358 17.2875 16.7854 17.2203 16.8204 17.1454C16.8554 17.0705 16.8753 16.9893 16.8787 16.9067C16.8822 16.8241 16.8692 16.7416 16.8405 16.664C16.8118 16.5864 16.7681 16.5153 16.7117 16.4547L4.21249 2.70474ZM11.1656 12.2118C10.6754 12.4697 10.1134 12.5575 9.56783 12.4613C9.02229 12.3652 8.52413 12.0906 8.15157 11.6807C7.77901 11.2707 7.55314 10.7487 7.50945 10.1965C7.46575 9.64426 7.6067 9.09317 7.91015 8.62974L11.1656 12.2118ZM19.3211 10.2547C19.2883 10.3282 18.4969 12.0805 16.7148 13.6766C16.592 13.7868 16.4306 13.844 16.2658 13.8356C16.101 13.8273 15.9462 13.7541 15.8351 13.6321L7.92187 4.9274C7.84617 4.84433 7.79426 4.74238 7.77163 4.63229C7.74899 4.52221 7.75646 4.40805 7.79325 4.30185C7.83004 4.19566 7.89478 4.10134 7.98066 4.02884C8.06654 3.95634 8.17038 3.90834 8.28124 3.8899C8.84934 3.79609 9.4242 3.74932 9.99999 3.75005C12.725 3.75005 15.2008 4.78599 17.1609 6.74615C18.632 8.21724 19.2937 9.68521 19.3211 9.74693C19.3566 9.82686 19.375 9.91336 19.375 10.0008C19.375 10.0883 19.3566 10.1748 19.3211 10.2547Z" fill="#949393"/>
</svg>
