<svg width="20" height="20" viewBox="0 0 20 20" fill="none" xmlns="http://www.w3.org/2000/svg">
<path d="M16.6667 6.66671L10 10.8334L3.33334 6.66671V5.00004L10 9.16671L16.6667 5.00004M16.6667 3.33337H3.33334C2.40834 3.33337 1.66667 4.07504 1.66667 5.00004V15C1.66667 15.4421 1.84227 15.866 2.15483 16.1786C2.46739 16.4911 2.89131 16.6667 3.33334 16.6667H16.6667C17.1087 16.6667 17.5326 16.4911 17.8452 16.1786C18.1577 15.866 18.3333 15.4421 18.3333 15V5.00004C18.3333 4.55801 18.1577 4.13409 17.8452 3.82153C17.5326 3.50897 17.1087 3.33337 16.6667 3.33337Z" fill="#949393"/>
</svg>
