<svg width="20" height="20" viewBox="0 0 20 20" fill="none" xmlns="http://www.w3.org/2000/svg">
<path d="M9.99999 14.1667C10.442 14.1667 10.8659 13.9911 11.1785 13.6786C11.4911 13.366 11.6667 12.9421 11.6667 12.5C11.6667 12.058 11.4911 11.6341 11.1785 11.3215C10.8659 11.009 10.442 10.8334 9.99999 10.8334C9.55797 10.8334 9.13404 11.009 8.82148 11.3215C8.50892 11.6341 8.33333 12.058 8.33333 12.5C8.33333 12.9421 8.50892 13.366 8.82148 13.6786C9.13404 13.9911 9.55797 14.1667 9.99999 14.1667ZM15 6.66671C15.442 6.66671 15.8659 6.8423 16.1785 7.15486C16.4911 7.46742 16.6667 7.89135 16.6667 8.33337V16.6667C16.6667 17.1087 16.4911 17.5327 16.1785 17.8452C15.8659 18.1578 15.442 18.3334 15 18.3334H4.99999C4.55797 18.3334 4.13404 18.1578 3.82148 17.8452C3.50892 17.5327 3.33333 17.1087 3.33333 16.6667V8.33337C3.33333 7.89135 3.50892 7.46742 3.82148 7.15486C4.13404 6.8423 4.55797 6.66671 4.99999 6.66671H5.83333V5.00004C5.83333 3.89497 6.27232 2.83516 7.05372 2.05376C7.83512 1.27236 8.89493 0.833374 9.99999 0.833374C10.5472 0.833374 11.089 0.941148 11.5945 1.15054C12.1 1.35994 12.5594 1.66685 12.9463 2.05376C13.3332 2.44067 13.6401 2.9 13.8495 3.40553C14.0589 3.91105 14.1667 4.45287 14.1667 5.00004V6.66671H15ZM9.99999 2.50004C9.33695 2.50004 8.70107 2.76343 8.23223 3.23227C7.76339 3.70111 7.49999 4.337 7.49999 5.00004V6.66671H12.5V5.00004C12.5 4.337 12.2366 3.70111 11.7678 3.23227C11.2989 2.76343 10.663 2.50004 9.99999 2.50004Z" fill="#949393"/>
</svg>
