<svg width="15" height="16" viewBox="0 0 15 16" fill="none" xmlns="http://www.w3.org/2000/svg">
<path d="M0.833252 12.9998C0.833252 12.1158 1.18444 11.2679 1.80956 10.6428C2.43468 10.0177 3.28253 9.6665 4.16659 9.6665H10.8333C11.7173 9.6665 12.5652 10.0177 13.1903 10.6428C13.8154 11.2679 14.1666 12.1158 14.1666 12.9998C14.1666 13.4419 13.991 13.8658 13.6784 14.1783C13.3659 14.4909 12.9419 14.6665 12.4999 14.6665H2.49992C2.05789 14.6665 1.63397 14.4909 1.32141 14.1783C1.00885 13.8658 0.833252 13.4419 0.833252 12.9998Z" stroke="#D2B25F" stroke-width="1.5" stroke-linejoin="round"/>
<path d="M7.5 6.33325C8.88071 6.33325 10 5.21396 10 3.83325C10 2.45254 8.88071 1.33325 7.5 1.33325C6.11929 1.33325 5 2.45254 5 3.83325C5 5.21396 6.11929 6.33325 7.5 6.33325Z" stroke="#D2B25F" stroke-width="1.5"/>
</svg>
